<svg width="34" height="35" viewBox="0 0 34 35" fill="none" xmlns="http://www.w3.org/2000/svg">
<path d="M15.851 1.06558H9.49913C4.2753 1.06558 1 4.76388 1 9.99961V24.1235C1 29.3592 4.26001 33.0575 9.49913 33.0575H24.4894C29.7302 33.0575 32.9902 29.3592 32.9902 24.1235V17.2807" stroke="#949494" stroke-width="2" stroke-linecap="round" stroke-linejoin="round"/>
<path fill-rule="evenodd" clip-rule="evenodd" d="M11.3244 14.8801L24.0196 2.18492C25.6011 0.605027 28.1646 0.605027 29.7462 2.18492L31.8137 4.25237C33.3953 5.83395 33.3953 8.39915 31.8137 9.97904L19.0573 22.7354C18.3659 23.4268 17.4282 23.8158 16.4497 23.8158H10.0859L10.2456 17.3943C10.2694 16.4498 10.655 15.5494 11.3244 14.8801Z" stroke="#949494" stroke-width="2" stroke-linecap="round" stroke-linejoin="round"/>
<path d="M22.0903 4.14639L29.8471 11.9031" stroke="#949494" stroke-width="2" stroke-linecap="round" stroke-linejoin="round"/>
</svg>
